# Blender v3.0.0 OBJ File: 'scena.blend1'
# www.blender.org
mtllib tree.mtl
o Cylinder.006
v -4.101721 1.189094 -0.227419
v -4.102614 1.385383 -0.267405
v -4.020618 1.386838 -0.234922
v -4.042625 1.190142 -0.204008
v -3.978698 1.388818 -0.157336
v -4.012413 1.191569 -0.148092
v -3.996470 1.390396 -0.070952
v -4.025222 1.192706 -0.085833
v -4.065619 1.390834 -0.016188
v -4.075057 1.193022 -0.046364
v -4.153787 1.389928 -0.018670
v -4.138602 1.192369 -0.048153
v -4.219721 1.388100 -0.077237
v -4.186122 1.191052 -0.090363
v -4.232569 1.386207 -0.164483
v -4.195382 1.189687 -0.153243
v -4.162049 1.188914 -0.207370
v -4.186320 1.385134 -0.239587
v -4.098829 0.995680 -0.259507
v -4.016833 0.997135 -0.227024
v -3.974913 0.999114 -0.149439
v -3.992685 1.000692 -0.063054
v -4.061834 1.001131 -0.008289
v -4.150002 1.000224 -0.010772
v -4.215936 0.998397 -0.069339
v -4.228784 0.996503 -0.156586
v -4.182535 0.995431 -0.231689
vt 0.122671 0.882048
vt 0.127410 0.944021
vt 0.115154 0.947249
vt 0.111636 0.882160
vt 0.102794 0.949552
vt 0.100134 0.882451
vt 0.090330 0.951195
vt 0.088385 0.882870
vt 0.077750 0.952274
vt 0.076562 0.883332
vt 0.065029 0.952731
vt 0.064819 0.883744
vt 0.052124 0.952329
vt 0.053330 0.884026
vt 0.038988 0.950564
vt 0.042311 0.884137
vt 0.132942 0.881983
vt 0.139553 0.939343
vt 0.025319 0.946256
vt 0.032057 0.884215
vt 0.015935 0.704040
vt 0.017852 0.745266
vt 0.022709 0.767198
vt 0.028231 0.759575
vt 0.031835 0.725962
vt 0.031835 0.682089
vt 0.028231 0.648483
vt 0.022709 0.640869
vt 0.017852 0.662810
vt 0.037693 0.823640
vt 0.025592 0.828296
vt 0.139553 0.821261
vt 0.125882 0.816976
vt 0.049907 0.820445
vt 0.062223 0.818168
vt 0.074644 0.816529
vt 0.087184 0.815431
vt 0.099872 0.814931
vt 0.112753 0.815272
vn 0.3648 -0.1843 -0.9127
vn 0.8688 -0.1703 -0.4650
vn 0.9670 -0.1558 0.2018
vn 0.6135 -0.1476 0.7758
vn -0.0263 -0.1495 0.9884
vn -0.6530 -0.1606 0.7401
vn -0.9734 -0.1758 0.1472
vn -0.3090 -0.1912 -0.9316
vn -0.8375 -0.1878 -0.5131
vn 0.0097 -0.9997 0.0203
vn -0.8403 0.1543 -0.5197
vn -0.3122 0.1509 -0.9380
vn -0.9761 0.1663 0.1401
vn -0.6559 0.1815 0.7327
vn -0.0296 0.1926 0.9808
vn 0.6098 0.1945 0.7684
vn 0.9630 0.1863 0.1947
vn 0.8649 0.1718 -0.4717
vn 0.3613 0.1579 -0.9190
usemtl Material.008
s 1
f 1/1/1 2/2/1 3/3/1 4/4/1
f 4/4/2 3/3/2 5/5/2 6/6/2
f 6/6/3 5/5/3 7/7/3 8/8/3
f 8/8/4 7/7/4 9/9/4 10/10/4
f 10/10/5 9/9/5 11/11/5 12/12/5
f 12/12/6 11/11/6 13/13/6 14/14/6
f 14/14/7 13/13/7 15/15/7 16/16/7
f 17/17/8 18/18/8 2/2/8 1/1/8
f 16/16/9 15/15/9 18/19/9 17/20/9
f 19/21/10 20/22/10 21/23/10 22/24/10 23/25/10 24/26/10 25/27/10 26/28/10 27/29/10
f 26/30/11 16/16/11 17/20/11 27/31/11
f 27/32/12 17/17/12 1/1/12 19/33/12
f 25/34/13 14/14/13 16/16/13 26/30/13
f 24/35/14 12/12/14 14/14/14 25/34/14
f 23/36/15 10/10/15 12/12/15 24/35/15
f 22/37/16 8/8/16 10/10/16 23/36/16
f 21/38/17 6/6/17 8/8/17 22/37/17
f 20/39/18 4/4/18 6/6/18 21/38/18
f 19/33/19 1/1/19 4/4/19 20/39/19
o Cylinder.007
v -4.102941 2.484166 -0.249878
v -4.106833 2.738200 -0.163262
v -4.103692 2.738256 -0.162017
v -4.042524 2.485239 -0.225942
v -4.102085 2.738332 -0.159044
v -4.013233 2.465641 -0.170454
v -4.102766 2.738392 -0.155734
v -4.024731 2.487859 -0.105123
v -4.105416 2.738409 -0.153636
v -4.075682 2.488182 -0.064770
v -4.108795 2.738374 -0.153731
v -4.142245 2.466459 -0.068280
v -4.111320 2.738304 -0.155974
v -4.189230 2.486167 -0.109754
v -4.111813 2.738232 -0.159318
v -4.198699 2.484773 -0.174040
v -4.110041 2.738190 -0.162196
v -4.166216 2.462927 -0.231060
v -4.092948 1.393502 -0.455233
v -3.882081 1.397243 -0.371697
v -3.773655 1.337990 -0.170868
v -3.819359 1.342049 0.051284
v -3.997809 1.407519 0.190813
v -4.226146 1.384133 0.182749
v -4.393485 1.336144 0.035121
v -4.426526 1.331276 -0.189248
v -4.309185 1.307462 -0.384070
v -4.483096 1.313424 -0.202808
v -4.386275 1.514225 -0.185476
v -4.283929 1.490759 -0.355946
v -4.345128 1.289132 -0.431127
v -4.094209 1.512374 -0.416785
v -4.090932 1.310939 -0.513393
v -4.444323 1.319137 0.060474
v -4.357398 1.518479 0.010605
v -4.246953 1.303597 0.235528
v -4.210813 1.501531 0.140548
v -3.979291 1.327388 0.244699
v -4.011064 1.524624 0.147807
v -3.770625 1.326065 0.079440
v -3.855660 1.523639 0.024730
v -3.718592 1.300248 -0.182921
v -3.815718 1.520092 -0.169413
v -3.843493 1.315329 -0.415369
v -3.909929 1.515643 -0.343781
v -4.263589 2.227430 -0.180857
v -4.164803 2.501913 -0.164368
v -4.144903 2.480360 -0.200958
v -4.207051 2.205026 -0.276943
v -4.104396 2.501530 -0.212209
v -4.100233 2.226394 -0.310231
v -4.247439 2.229809 -0.071186
v -4.158831 2.502793 -0.123813
v -4.166156 2.211051 0.000753
v -4.129779 2.482588 -0.098271
v -4.053730 2.233246 0.005553
v -4.087199 2.504064 -0.095436
v -3.966809 2.232695 -0.063286
v -4.055058 2.503860 -0.120892
v -3.946066 2.209656 -0.173553
v -4.046795 2.503127 -0.161046
v -3.997163 2.228223 -0.269399
v -4.066282 2.502207 -0.197110
v -4.097237 1.943062 -0.377285
v -4.101751 2.244720 -0.265323
v -4.025689 2.246069 -0.235189
v -3.946829 1.945731 -0.317700
v -3.986802 2.247906 -0.163219
v -3.871531 1.928306 -0.177064
v -4.003289 2.249370 -0.083085
v -3.902535 1.952257 -0.016925
v -4.067432 2.249776 -0.032283
v -4.029375 1.953061 0.083529
v -4.150818 2.227880 -0.036267
v -4.192701 1.930343 0.077294
v -4.210384 2.247240 -0.088915
v -4.312049 1.948045 -0.028454
v -4.222303 2.245484 -0.169849
v -4.335618 1.944573 -0.188493
v -4.252378 1.921550 -0.327938
v -4.180997 2.223433 -0.241197
v -4.388316 1.690598 -0.192886
v -4.285738 1.962582 -0.175895
v -4.220819 1.939983 -0.285590
v -4.285487 1.667121 -0.364140
v -4.098833 1.961398 -0.323919
v -4.094892 1.688738 -0.425272
v -4.359306 1.694872 0.004107
v -4.267260 1.965305 -0.050414
v -4.212032 1.677944 0.134663
v -4.174029 1.946877 0.032137
v -4.011360 1.701046 0.141948
v -4.045625 1.969237 0.037388
v -3.855232 1.700056 0.018298
v -3.946175 1.968607 -0.041375
v -3.816701 1.675438 -0.178429
v -3.920615 1.966337 -0.165616
v -3.909754 1.692023 -0.351928
v -3.980904 1.963490 -0.277200
v -4.092681 1.491428 -0.476330
v -4.096232 1.708852 -0.376150
v -3.940986 1.711606 -0.314648
v -3.871804 1.495346 -0.388828
v -3.861617 1.715354 -0.167751
v -3.760480 1.479624 -0.181512
v -3.895266 1.718342 -0.004195
v -3.806757 1.504930 0.052867
v -4.026187 1.719172 0.099491
v -3.993025 1.506111 0.200387
v -4.194717 1.696401 0.093111
v -4.232126 1.482613 0.192021
v -4.317957 1.713995 -0.016095
v -4.408139 1.498746 0.035937
v -4.342283 1.710411 -0.181283
v -4.442750 1.493646 -0.199084
v -4.319763 1.469701 -0.403075
v -4.256314 1.687325 -0.325161
v -4.021021 1.428264 -0.235762
v -4.103016 1.426809 -0.268245
v -4.186722 1.426560 -0.240427
v -4.232972 1.427633 -0.165323
v -4.220123 1.429526 -0.078077
v -4.154190 1.431353 -0.019510
v -4.066021 1.432260 -0.017027
v -3.996873 1.431822 -0.071792
v -3.979101 1.430243 -0.158176
vt 87.145050 326.718109
vt 45.650116 387.515259
vt 45.364315 385.396362
vt 73.339920 318.347961
vt 44.732731 384.298645
vt 62.028606 311.755951
vt 43.863491 384.157837
vt 50.226120 305.459961
vt 42.953644 384.659058
vt 36.667603 300.874146
vt 42.071507 386.000519
vt 20.698185 293.453888
vt -129.823486 -182.399002
vt -116.918274 -294.707977
vt -115.766556 -294.525116
vt -114.279205 -192.377563
vt -114.621429 -294.768707
vt -100.232605 -197.423691
vt 44.753155 389.030701
vt 43.476295 389.239319
vt 42.417377 388.042145
vt -87.486115 -203.120331
vt -113.553223 -295.407471
vt -112.593552 -296.344147
vt -74.590622 -212.577271
vt 133.068436 -330.383240
vt 117.123611 -288.255493
vt 96.645172 -273.566589
vt 75.887482 -266.704987
vt 58.129356 -280.106140
vt 43.686638 -320.200897
vt 56.784733 -367.332184
vt 85.268646 -388.300995
vt 116.079514 -378.021301
vt -79.477890 339.074188
vt -76.812744 290.878876
vt -44.962898 298.483429
vt -50.375416 350.171814
vt -11.382424 307.089478
vt -14.732824 365.794189
vt -106.866928 334.373993
vt -105.968903 288.531433
vt -136.333481 343.593811
vt -133.721924 295.155457
vt 53.072990 -268.549469
vt 43.576015 -222.562820
vt 12.615115 -248.034332
vt 29.268257 -309.368195
vt 75.775742 -257.942902
vt 73.598236 -215.784058
vt 98.471512 -262.859863
vt 102.622894 -216.804108
vt 122.770447 -274.385010
vt 133.342865 -227.622803
vt 148.460419 -316.739288
vt 168.287094 -251.618652
vt -83.352341 -54.426071
vt -99.718491 -182.094269
vt -84.524994 -184.995300
vt -60.704918 -59.135994
vt -71.774414 -197.206543
vt -36.871178 -67.422073
vt -107.702087 -50.000343
vt -111.074768 -178.313461
vt -134.465729 -39.172020
vt -122.505722 -170.637375
vt 35.821510 158.359192
vt 39.529316 287.175934
vt 26.834602 280.992157
vt 5.951967 150.386261
vt 61.074532 161.886765
vt 51.938072 289.297974
vt 84.593231 168.502502
vt 64.868515 291.986359
vt 106.689392 179.642731
vt 76.287018 301.829773
vt 137.003632 193.346436
vt 87.661194 307.563324
vt 175.236221 28.282047
vt 135.928162 167.002930
vt 110.766998 156.786987
vt 132.811249 20.307074
vt 86.145325 146.487900
vt 100.305710 11.434461
vt 61.830505 142.747742
vt 67.492020 6.401935
vt 37.537643 141.274811
vt 33.841137 3.219027
vt 13.103643 132.509827
vt -4.904307 -5.984796
vt -137.955414 100.639236
vt -126.994095 -23.142885
vt -105.719910 -33.064041
vt -105.541336 91.275299
vt -83.523392 -36.657742
vt -75.651703 87.773270
vt -45.230793 84.750244
vt -59.229164 -39.279675
vt -36.798691 -49.827766
vt -12.081213 80.970520
vt -74.051636 200.143173
vt -75.938339 105.696564
vt -44.794212 105.092773
vt -40.999142 200.908295
vt -14.255030 99.446472
vt -4.904307 204.857300
vt -105.339218 201.439697
vt -104.433517 107.786591
vt -137.822571 208.244781
vt -131.443466 117.460663
vt 35.163490 -124.342133
vt 35.160366 -14.637254
vt 2.516421 -25.717604
vt -4.904307 -137.997375
vt 70.863968 -120.021988
vt 67.891556 -13.704137
vt 105.602280 -117.208237
vt 100.733353 -11.041111
vt 141.233124 -116.740326
vt 134.883804 -4.470157
vt 186.276474 -122.646530
vt 171.102997 0.410460
vt 177.299637 -234.295898
vt 180.450027 -143.630737
vt 140.694382 -136.359711
vt 136.238754 -210.183441
vt 104.896042 -134.757919
vt 104.012375 -202.277771
vt 71.006927 -135.531418
vt 73.183167 -201.927063
vt 36.527031 -138.291748
vt 41.228622 -210.085205
vt 1.552026 -153.360718
vt 4.452505 -234.614136
vt -137.955414 281.800049
vt -133.434708 221.484238
vt -104.943069 214.231735
vt -106.152298 275.952881
vt -74.755219 214.202972
vt -75.724915 277.090149
vt -43.490990 282.608734
vt -41.605011 216.961060
vt -7.883523 219.177383
vt -7.143565 293.120300
vt -131.850479 361.307526
vt -106.823029 344.952423
vt -81.133469 350.568359
vt -52.536385 363.324890
vt -19.807360 389.239319
vt -185.218872 363.346497
vt -185.218872 335.791840
vt -174.505127 314.683807
vt -158.090958 309.899414
vt -143.656174 323.676636
vt -137.955414 349.569244
vt -143.656174 375.462372
vt -158.090958 389.239319
vt -174.505127 384.455078
vn 0.3457 0.3076 -0.8865
vn 0.8806 0.3035 -0.3641
vn 0.9490 0.3078 0.0685
vn 0.5869 0.3320 0.7384
vn -0.1461 0.3142 0.9380
vn -0.5564 0.3118 0.7702
vn -0.9401 0.3146 0.1316
vn -0.0097 0.9997 -0.0203
vn -0.3592 0.2955 -0.8852
vn -0.7777 0.2979 -0.5536
vn 0.0511 -0.9984 0.0239
vn -0.7571 0.4136 -0.5058
vn -0.3159 0.4101 -0.8556
vn -0.8980 0.4224 0.1231
vn -0.5753 0.4316 0.6948
vn -0.0753 0.4362 0.8967
vn 0.5604 0.4362 0.7041
vn 0.8997 0.4080 0.1550
vn 0.8106 0.4018 -0.4261
vn 0.3291 0.4127 -0.8493
vn -0.7719 0.3185 -0.5502
vn -0.3569 0.3155 -0.8792
vn -0.9353 0.3288 0.1306
vn -0.5529 0.3389 0.7612
vn -0.1424 0.3432 0.9284
vn 0.5838 0.3460 0.7344
vn 0.9372 0.3240 0.1295
vn 0.8532 0.3172 -0.4141
vn 0.3441 0.3197 -0.8828
vn 0.3424 0.3314 -0.8792
vn 0.8415 0.3300 -0.4277
vn 0.9294 0.3381 0.1479
vn 0.5807 0.3596 0.7304
vn -0.1033 0.3587 0.9277
vn -0.5779 0.3535 0.7355
vn -0.9306 0.3424 0.1296
vn -0.3366 0.3279 -0.8827
vn -0.7794 0.3317 -0.5315
vn -0.7847 0.3326 -0.5231
vn -0.3272 0.3286 -0.8860
vn -0.9304 0.3428 0.1296
vn -0.5907 0.3536 0.7253
vn -0.0850 0.3589 0.9295
vn 0.5809 0.3590 0.7305
vn 0.9285 0.3365 0.1572
vn 0.8383 0.3287 -0.4351
vn 0.3424 0.3317 -0.8791
vn 0.3315 0.3993 -0.8548
vn 0.8161 0.3904 -0.4261
vn 0.9049 0.3969 0.1535
vn 0.5641 0.4235 0.7089
vn -0.0807 0.4232 0.9024
vn -0.5757 0.4184 0.7026
vn -0.9041 0.4088 0.1243
vn -0.3204 0.3963 -0.8604
vn -0.7609 0.3997 -0.5111
vn 0.1773 -0.8513 0.4939
vn 0.4349 -0.8465 0.3072
vn 0.4618 -0.8857 -0.0488
vn 0.0581 -0.8274 -0.5587
vn 0.3535 -0.8296 -0.4323
vn -0.2859 -0.8905 -0.3538
vn -0.6439 -0.7637 0.0455
vn -0.6161 -0.7688 0.1714
vn -0.1462 -0.9005 0.4095
vn -0.1306 -0.9195 0.3708
vn -0.5334 -0.8208 0.2042
vn -0.5789 -0.8153 -0.0083
vn -0.2511 -0.9171 -0.3097
vn 0.2187 -0.8931 -0.3932
vn 0.1369 -0.8933 -0.4280
vn 0.4094 -0.9115 -0.0405
vn 0.3038 -0.8985 0.3168
vn 0.2285 -0.8995 0.3724
vn 0.2150 -0.9300 0.2982
vn 0.2339 -0.9299 0.2840
vn 0.3463 -0.9376 -0.0307
vn 0.1399 -0.9312 -0.3366
vn 0.1568 -0.9311 -0.3294
vn -0.2095 -0.9434 -0.2570
vn -0.5036 -0.8637 -0.0205
vn -0.4587 -0.8666 0.1965
vn -0.1101 -0.9410 0.3200
vn -0.1313 -0.9187 0.3726
vn -0.5014 -0.8323 0.2365
vn -0.5599 -0.8271 -0.0488
vn -0.2480 -0.9192 -0.3058
vn 0.1277 -0.9107 -0.3928
vn 0.2035 -0.9102 -0.3606
vn 0.4034 -0.9141 -0.0396
vn 0.2229 -0.9112 0.3466
vn 0.2809 -0.9107 0.3028
vn 0.2456 -0.9322 0.2658
vn 0.1949 -0.9324 0.3045
vn 0.3488 -0.9367 -0.0310
vn 0.1755 -0.9356 -0.3062
vn 0.1113 -0.9362 -0.3333
vn -0.2113 -0.9424 -0.2593
vn -0.4890 -0.8714 -0.0397
vn -0.4393 -0.8732 0.2108
vn -0.1130 -0.9382 0.3271
vn -0.2980 -0.5546 0.7770
vn -0.6974 -0.6674 0.2611
vn -0.4548 -0.8898 -0.0369
vn -0.4913 -0.7383 -0.4622
vn 0.0813 -0.5521 -0.8298
vn 0.4846 -0.7354 -0.4737
vn 0.3062 -0.9517 -0.0244
vn 0.3575 -0.7290 0.5838
vn 0.2150 -0.9473 0.2374
usemtl Material.014
s 1
f 28/40/20 29/41/20 30/42/20 31/43/20
f 31/43/21 30/42/21 32/44/21 33/45/21
f 33/45/22 32/44/22 34/46/22 35/47/22
f 35/47/23 34/46/23 36/48/23 37/49/23
f 37/49/24 36/48/24 38/50/24 39/51/24
f 39/52/25 38/53/25 40/54/25 41/55/25
f 41/55/26 40/54/26 42/56/26 43/57/26
f 30/42/27 29/41/27 44/58/27 42/59/27 40/60/27 38/50/27 36/48/27 34/46/27 32/44/27
f 45/61/28 44/62/28 29/63/28 28/64/28
f 43/57/29 42/56/29 44/62/29 45/61/29
f 46/65/30 47/66/30 48/67/30 49/68/30 50/69/30 51/70/30 52/71/30 53/72/30 54/73/30
f 55/74/31 56/75/31 57/76/31 58/77/31
f 58/77/32 57/76/32 59/78/32 60/79/32
f 61/80/33 62/81/33 56/75/33 55/74/33
f 63/82/34 64/83/34 62/81/34 61/80/34
f 65/84/35 66/85/35 64/86/35 63/87/35
f 67/88/36 68/89/36 66/85/36 65/84/36
f 69/90/37 70/91/37 68/89/37 67/88/37
f 71/92/38 72/93/38 70/91/38 69/90/38
f 60/94/39 59/95/39 72/93/39 71/92/39
f 73/96/40 74/97/40 75/98/40 76/99/40
f 76/99/41 75/98/41 77/100/41 78/101/41
f 79/102/42 80/103/42 74/97/42 73/96/42
f 81/104/43 82/105/43 80/103/43 79/102/43
f 83/106/44 84/107/44 82/108/44 81/109/44
f 85/110/45 86/111/45 84/107/45 83/106/45
f 87/112/46 88/113/46 86/111/46 85/110/46
f 89/114/47 90/115/47 88/113/47 87/112/47
f 78/116/48 77/117/48 90/115/48 89/114/48
f 91/118/49 92/119/49 93/120/49 94/121/49
f 94/121/50 93/120/50 95/122/50 96/123/50
f 96/123/51 95/122/51 97/124/51 98/125/51
f 98/125/52 97/124/52 99/126/52 100/127/52
f 100/127/53 99/126/53 101/128/53 102/129/53
f 102/130/54 101/131/54 103/132/54 104/133/54
f 104/133/55 103/132/55 105/134/55 106/135/55
f 107/136/56 108/137/56 92/138/56 91/139/56
f 106/135/57 105/134/57 108/137/57 107/136/57
f 109/140/58 110/141/58 111/142/58 112/143/58
f 112/143/59 111/142/59 113/144/59 114/145/59
f 115/146/60 116/147/60 110/141/60 109/140/60
f 117/148/61 118/149/61 116/147/61 115/146/61
f 119/150/62 120/151/62 118/152/62 117/153/62
f 121/154/63 122/155/63 120/151/63 119/150/63
f 123/156/64 124/157/64 122/155/64 121/154/64
f 125/158/65 126/159/65 124/157/65 123/156/65
f 114/160/66 113/161/66 126/159/66 125/158/66
f 127/162/67 128/163/67 129/164/67 130/165/67
f 130/165/68 129/164/68 131/166/68 132/167/68
f 132/167/69 131/166/69 133/168/69 134/169/69
f 134/169/70 133/168/70 135/170/70 136/171/70
f 136/171/71 135/170/71 137/172/71 138/173/71
f 138/174/72 137/175/72 139/176/72 140/177/72
f 140/177/73 139/176/73 141/178/73 142/179/73
f 143/180/74 144/181/74 128/182/74 127/183/74
f 142/179/75 141/178/75 144/181/75 143/180/75
f 74/97/76 43/57/76 45/61/76 75/98/76
f 75/98/77 45/61/77 28/64/77 77/100/77
f 80/103/78 41/55/78 43/57/78 74/97/78
f 82/105/79 39/52/79 41/55/79 80/103/79
f 84/107/80 37/49/80 39/51/80 82/108/80
f 86/111/81 35/47/81 37/49/81 84/107/81
f 88/113/82 33/45/82 35/47/82 86/111/82
f 90/115/83 31/43/83 33/45/83 88/113/83
f 77/117/84 28/40/84 31/43/84 90/115/84
f 92/119/85 78/116/85 89/114/85 93/120/85
f 93/120/86 89/114/86 87/112/86 95/122/86
f 95/122/87 87/112/87 85/110/87 97/124/87
f 97/124/88 85/110/88 83/106/88 99/126/88
f 99/126/89 83/106/89 81/109/89 101/128/89
f 101/131/90 81/104/90 79/102/90 103/132/90
f 103/132/91 79/102/91 73/96/91 105/134/91
f 108/137/92 76/99/92 78/101/92 92/138/92
f 105/134/93 73/96/93 76/99/93 108/137/93
f 110/141/94 106/135/94 107/136/94 111/142/94
f 111/142/95 107/136/95 91/139/95 113/144/95
f 116/147/96 104/133/96 106/135/96 110/141/96
f 118/149/97 102/130/97 104/133/97 116/147/97
f 120/151/98 100/127/98 102/129/98 118/152/98
f 122/155/99 98/125/99 100/127/99 120/151/99
f 124/157/100 96/123/100 98/125/100 122/155/100
f 126/159/101 94/121/101 96/123/101 124/157/101
f 113/161/102 91/118/102 94/121/102 126/159/102
f 128/163/103 114/160/103 125/158/103 129/164/103
f 129/164/104 125/158/104 123/156/104 131/166/104
f 131/166/105 123/156/105 121/154/105 133/168/105
f 133/168/106 121/154/106 119/150/106 135/170/106
f 135/170/107 119/150/107 117/153/107 137/172/107
f 137/175/108 117/148/108 115/146/108 139/176/108
f 139/176/109 115/146/109 109/140/109 141/178/109
f 144/181/110 112/143/110 114/145/110 128/182/110
f 141/178/111 109/140/111 112/143/111 144/181/111
f 56/75/112 142/179/112 143/180/112 57/76/112
f 57/76/113 143/180/113 127/183/113 59/78/113
f 62/81/114 140/177/114 142/179/114 56/75/114
f 64/83/115 138/174/115 140/177/115 62/81/115
f 66/85/116 136/171/116 138/173/116 64/86/116
f 68/89/117 134/169/117 136/171/117 66/85/117
f 70/91/118 132/167/118 134/169/118 68/89/118
f 72/93/119 130/165/119 132/167/119 70/91/119
f 59/95/120 127/162/120 130/165/120 72/93/120
f 46/65/121 60/94/121 71/92/121 47/66/121
f 47/66/122 71/92/122 69/90/122 48/67/122
f 48/67/123 69/90/123 67/88/123 49/68/123
f 49/68/124 67/88/124 65/84/124 50/69/124
f 50/69/125 65/84/125 63/87/125 51/70/125
f 51/184/126 63/82/126 61/80/126 52/185/126
f 52/185/127 61/80/127 55/74/127 53/186/127
f 54/187/128 58/77/128 60/79/128 46/188/128
f 53/186/129 55/74/129 58/77/129 54/187/129
f 145/189/27 146/190/27 147/191/27 148/192/27 149/193/27 150/194/27 151/195/27 152/196/27 153/197/27
